PathFileType	4	(X/Y/Z)	/Users/niels/Desktop/University/Third Semester/Perception and Action/Exam/Gymnastics Motion Tracking/Code for Gym Tracking/Analyzed Data/Webcam_Backflip/id3_4_baseline_Sports2D/id3_4_baseline_Sports2D_px_person00.trc
DataRate	CameraRate	NumFrames	NumMarkers	Units	OrigDataRate	OrigDataStartFrame	OrigNumFrames
29.8125	29.8125	10	22	m	29.8125	80	160
Frame#	Time	Hip			RHip			RKnee			RAnkle			RBigToe			RSmallToe			RHeel			LHip			LKnee			LAnkle			LBigToe			LSmallToe			LHeel			Neck			Head			Nose			RShoulder			RElbow			RWrist			LShoulder			LElbow			LWrist		
		X1	Y1	Z1	X2	Y2	Z2	X3	Y3	Z3	X4	Y4	Z4	X5	Y5	Z5	X6	Y6	Z6	X7	Y7	Z7	X8	Y8	Z8	X9	Y9	Z9	X10	Y10	Z10	X11	Y11	Z11	X12	Y12	Z12	X13	Y13	Z13	X14	Y14	Z14	X15	Y15	Z15	X16	Y16	Z16	X17	Y17	Z17	X18	Y18	Z18	X19	Y19	Z19	X20	Y20	Z20	X21	Y21	Z21	X22	Y22	Z22
80	2.683438155136268	1.1305407888605914	-0.6139135647900336	0.0	1.134552883021475	-0.6146740143124312	0.0	1.2455464173610258	-0.6593126927251137	0.0	1.1708639692114517	-0.7441450218870409	0.0	1.2072034566876972	-0.7746638578946075	0.0	1.198647214691889	-0.7756626762360745	0.0	1.1540268711695572	-0.7537301585023627	0.0	1.125675807328298	-0.6117427548262941	0.0	1.218695368931266	-0.6567341567705419	0.0	1.1569111759576551	-0.7327983787166199	0.0	1.1827613546816258	-0.7549815876340189	0.0	1.1730260127809506	-0.753361789941698	0.0	1.1375008937590585	-0.739206454103922	0.0	1.20489825440878	-0.4852702871482959	0.0	1.2487827855812426	-0.4216316612374967	0.0	1.2464957744548881	-0.46615243533781897	0.0	1.2011250522483992	-0.4999345645992869	0.0	1.2516931044278576	-0.5444051937825248	0.0	1.3119414290322737	-0.5185723574186076	0.0	1.1869058170008515	-0.4930344510600793	0.0	1.2175328944111306	-0.5409324027807435	0.0	1.2679687258714412	-0.5231868457418731	0.0
81	2.716981132075471	1.132786377490125	-0.6046352256833618	0.0	1.1373513295135496	-0.6052168339764709	0.0	1.246138157406684	-0.6543783929804817	0.0	1.1805608312368814	-0.7465555589567133	0.0	1.2203510325425269	-0.7743480514413015	0.0	1.2116654826060418	-0.7753431486208949	0.0	1.1645815292071802	-0.7573497623565921	0.0	1.1275939488959885	-0.6023658407232702	0.0	1.2206151105406884	-0.653046377266996	0.0	1.165226820075403	-0.7365033029026127	0.0	1.1966920069566502	-0.7556159158706051	0.0	1.1877122760847327	-0.754167297599503	0.0	1.1475936846747303	-0.7441639456484782	0.0	1.2073226678145046	-0.4743782151816959	0.0	1.2493418297119232	-0.4097117052117654	0.0	1.2493354394323668	-0.45462526660405417	0.0	1.2039896930982261	-0.48994385070862584	0.0	1.249099810643235	-0.5401853956111498	0.0	1.3108048195075002	-0.5182894082661867	0.0	1.1891098500651494	-0.48302596039897666	0.0	1.2132736789968555	-0.5364800702597317	0.0	1.2687502978253615	-0.5215741885973896	0.0
82	2.7505241090146746	1.1354405675729913	-0.5983014048640235	0.0	1.1401853393745522	-0.5985973115057447	0.0	1.2454452462757684	-0.6549989513863445	0.0	1.1895111980624598	-0.7540797288490093	0.0	1.2322582740378403	-0.7787937377583248	0.0	1.2229815635995536	-0.7800859207874024	0.0	1.174637395752163	-0.7659089001393682	0.0	1.1298884092982915	-0.5957480389696328	0.0	1.2206068334421332	-0.6549769486172127	0.0	1.171455106023418	-0.7448618468676554	0.0	1.2074318641141044	-0.7613740804705318	0.0	1.1984311471354698	-0.7599283035372951	0.0	1.1560028330277214	-0.7536646092313088	0.0	1.209436958371382	-0.46613301731585405	0.0	1.2495437242282208	-0.4005945210316578	0.0	1.2518532205751476	-0.4455295607155533	0.0	1.2062555983577958	-0.4825567208697407	0.0	1.2466806445534133	-0.5376969953798907	0.0	1.3107426882754931	-0.5212844833340984	0.0	1.191136427966464	-0.4755372397575985	0.0	1.2117560708325843	-0.5337073913612851	0.0	1.2731341692446707	-0.5233148547363593	0.0
83	2.784067085953878	1.1386703570841141	-0.5946530998724133	0.0	1.1433859226582308	-0.5945230819409418	0.0	1.2438674025943701	-0.6600611961012645	0.0	1.1964086510518412	-0.7646931760025092	0.0	1.2411502510210781	-0.786450811622593	0.0	1.231053863404699	-0.7881547347702539	0.0	1.1825816421687185	-0.7772134195171284	0.0	1.1328545165220536	-0.5916165527704961	0.0	1.2190959248385147	-0.6609934263690704	0.0	1.175178634961832	-0.7555031100386569	0.0	1.214199493710788	-0.7704268081382183	0.0	1.2046316160561232	-0.7687439446925409	0.0	1.161851861523142	-0.7652606312439193	0.0	1.2112007904428967	-0.46038290172589297	0.0	1.2496257020090367	-0.3943852429613144	0.0	1.2538392407066405	-0.4388265298792369	0.0	1.2077678724209029	-0.4775702877739054	0.0	1.243926583882704	-0.5371396912975172	0.0	1.3106337385170417	-0.5280648674966091	0.0	1.1929075778289042	-0.4704952077188606	0.0	1.2120406091356135	-0.5329936590379838	0.0	1.2791374966799225	-0.5293555779794038	0.0
84	2.817610062893081	1.1424510431192296	-0.593136165166579	0.0	1.1471385638475784	-0.5924200686407484	0.0	1.2417310919498776	-0.6680435325866049	0.0	1.2006350167512105	-0.7765422656835727	0.0	1.2463192080120558	-0.7956125296871591	0.0	1.235389767951145	-0.7977648627429703	0.0	1.1875838048795009	-0.7893564903640918	0.0	1.1366033021502764	-0.5894887160234414	0.0	1.2167998691989088	-0.6693163226160227	0.0	1.1766270727334565	-0.7666957700387621	0.0	1.2172742300961874	-0.7809779585050408	0.0	1.20703815431188	-0.7789257921815885	0.0	1.165118436108257	-0.7772138703966002	0.0	1.21262465344573	-0.4566512138198038	0.0	1.249657800784044	-0.39068266380346967	0.0	1.2552148209226892	-0.43420673935733517	0.0	1.2085958925130043	-0.47446277287580263	0.0	1.240412243460893	-0.5383139032668156	0.0	1.30925863468834	-0.5383213695926498	0.0	1.1944690090415926	-0.46754160215641954	0.0	1.212968876566553	-0.5345327117304891	0.0	1.283865036664545	-0.5397925644060733	0.0
85	2.8511530398322846	1.1466194552428495	-0.5930965384245654	0.0	1.1514508656829532	-0.5916500699551682	0.0	1.2394150156036847	-0.6771958286862542	0.0	1.2024058959570127	-0.7880135979785585	0.0	1.2481881587018062	-0.8046306247593547	0.0	1.2365852900247272	-0.8072609706156803	0.0	1.1898234500764213	-0.8007387955180699	0.0	1.1410036571932385	-0.588838393927214	0.0	1.2144941763585044	-0.6782340987225864	0.0	1.176442868036058	-0.7772156639445015	0.0	1.2175162365752894	-0.7913625082186515	0.0	1.2069404471251486	-0.7889357536115378	0.0	1.166330776893683	-0.7883105180541954	0.0	1.21374042395364	-0.4543511260480613	0.0	1.24964618271547	-0.3888180757864536	0.0	1.2560542996197748	-0.4312654319226455	0.0	1.2089689004888138	-0.47258123114002815	0.0	1.2359295144890359	-0.5406700196083005	0.0	1.3055313791285643	-0.5511226405140016	0.0	1.1959245710607085	-0.46620150900256996	0.0	1.2133704842037745	-0.5380380757180384	0.0	1.2842860715694933	-0.5536824199019719	0.0
86	2.884696016771488	1.1509856429802863	-0.5938679312408556	0.0	1.156203160839236	-0.5916295611692776	0.0	1.2373662812590907	-0.6858449011689127	0.0	1.20247183770271	-0.7978357623349415	0.0	1.2478383789891596	-0.8122499239158095	0.0	1.23583298409273	-0.8153998269753361	0.0	1.1901552482920303	-0.8101443926929214	0.0	1.1457439785951318	-0.5891415455119107	0.0	1.2127400663942083	-0.6863556107236323	0.0	1.1753981588262337	-0.7861660540293047	0.0	1.2161187219829117	-0.8002823953924029	0.0	1.2055767342404977	-0.7974882627929604	0.0	1.1662048597800843	-0.7976350679609021	0.0	1.2145900474051132	-0.4528683646343601	0.0	1.2496877281118737	-0.388019858341702	0.0	1.2565387745797754	-0.4295087575666922	0.0	1.209156184322504	-0.4712679698266885	0.0	1.23048554452406	-0.5434071693812625	0.0	1.2986164262899453	-0.5651952029779806	0.0	1.1972719449659377	-0.4658844487231674	0.0	1.2120592888462625	-0.5424542448013043	0.0	1.2784294502169085	-0.5690612914331042	0.0
87	2.918238993710691	1.1554533188476002	-0.5947830938639023	0.0	1.1612200730827416	-0.5918288591083917	0.0	1.2359676665144785	-0.6927179541263964	0.0	1.201697372987976	-0.805197442983789	0.0	1.246480754238869	-0.8177875138127303	0.0	1.2343662646279423	-0.82149554811487	0.0	1.1895866768868537	-0.8168884708860804	0.0	1.150550546792464	-0.5898494701171949	0.0	1.211833600562021	-0.6927335116009022	0.0	1.1741595923500354	-0.7929613392767008	0.0	1.21428010983086	-0.8069264696294575	0.0	1.2038831744753657	-0.8037156947807721	0.0	1.165400803412089	-0.8045526502399294	0.0	1.2152306986880643	-0.45155948545331476	0.0	1.249969822367489	-0.38750192286379154	0.0	1.2568577699229164	-0.42831869496045194	0.0	1.2093629983664858	-0.4699242664228343	0.0	1.2242089085401284	-0.5456456642952786	0.0	1.2879792117884912	-0.579134689644883	0.0	1.1983647783441735	-0.4658631547503297	0.0	1.2081476111277125	-0.546223645347547	0.0	1.2662021557916119	-0.5834332539145505	0.0
88	2.9517819706498947	1.1600738214983335	-0.5952565631233298	0.0	1.1663447986425655	-0.5918107030771776	0.0	1.2353916540420098	-0.6971435596775147	0.0	1.2007710799025684	-0.8097968863633132	0.0	1.2451547210808835	-0.8210902718736506	0.0	1.233172120910223	-0.8253694599293971	0.0	1.1888983577444896	-0.8208835661271338	0.0	1.155358279067614	-0.590402782917623	0.0	1.211822714682	-0.696881392288485	0.0	1.1731509371884743	-0.7973386694039863	0.0	1.2128130170427676	-0.8109497518188792	0.0	1.2024268566987497	-0.8072488637752933	0.0	1.1644032827979147	-0.8088226779678941	0.0	1.215750431773519	-0.4497934297350434	0.0	1.2506207387438282	-0.38654004595938835	0.0	1.257138722781973	-0.4269967751242404	0.0	1.2096806000217148	-0.46807159282952737	0.0	1.2172642777059612	-0.5466242587373481	0.0	1.273439640668405	-0.5915059208545009	0.0	1.1990663646378872	-0.4653819595401233	0.0	1.2016053533746003	-0.5479550595035891	0.0	1.2492728005751486	-0.5945709069561993	0.0
89	2.985324947589098	1.1649968332089977	-0.5949081561474062	0.0	1.1714712851828288	-0.5913185048258753	0.0	1.2355633022994046	-0.6990234792827223	0.0	1.2001109166185133	-0.8117527926270232	0.0	1.2445766897221715	-0.8223419908983794	0.0	1.2328813173196793	-0.8271600605188147	0.0	1.1884990073720578	-0.8224742600325922	0.0	1.1602727873410523	-0.5903270544086416	0.0	1.2124970585619985	-0.6987049911050351	0.0	1.1725501261208564	-0.7992999442056934	0.0	1.2120565144186641	-0.8124030637173079	0.0	1.2015479325535297	-0.8081982499732202	0.0	1.1634953430025343	-0.8106067768631529	0.0	1.2162769370393784	-0.447069208712199	0.0	1.2515712575237454	-0.38454319654754804	0.0	1.257451867551912	-0.42486919763543785	0.0	1.2101064596936664	-0.4654233604804625	0.0	1.2098279940383778	-0.5457966191097233	0.0	1.255327709489362	-0.6008973450406864	0.0	1.199373420270038	-0.4638215533480317	0.0	1.1933344549263707	-0.5468688037665478	0.0	1.2301469521541026	-0.6010538049826459	0.0
